<svg xmlns="http://www.w3.org/2000/svg" width="226" height="226" viewBox="0 0 226 226">
    <g fill="#D8D8D8" fill-rule="evenodd" opacity=".15">
        <path d="M130.71 178.24c0-9.843-7.98-17.824-17.824-17.824-9.844 0-17.824 7.98-17.824 17.824 0 26.251-21.28 47.531-47.531 47.531-26.25 0-47.531-21.28-47.531-47.53 0-26.251 21.28-47.531 47.53-47.531v5.941c-22.968 0-41.589 18.62-41.589 41.59 0 22.969 18.62 41.589 41.59 41.589 22.969 0 41.59-18.62 41.59-41.59 0-13.125 10.64-23.765 23.765-23.765s23.765 10.64 23.765 23.765c0 22.97 18.62 41.59 41.59 41.59 22.969 0 41.589-18.62 41.589-41.59 0-22.969-18.62-41.589-41.59-41.589v-5.941c26.251 0 47.531 21.28 47.531 47.53 0 26.251-21.28 47.531-47.53 47.531-26.251 0-47.531-21.28-47.531-47.53z" opacity=".5"/>
        <path d="M154.475 178.24c0-22.969-18.62-41.589-41.59-41.589-22.969 0-41.589 18.62-41.589 41.59 0 13.125-10.64 23.765-23.765 23.765s-23.766-10.64-23.766-23.766c0-13.125 10.64-23.765 23.766-23.765v5.941c-9.844 0-17.824 7.98-17.824 17.824 0 9.844 7.98 17.825 17.824 17.825 9.844 0 17.824-7.98 17.824-17.825 0-26.25 21.28-47.53 47.53-47.53 26.251 0 47.531 21.28 47.531 47.53 0 9.844 7.98 17.825 17.824 17.825 9.844 0 17.825-7.98 17.825-17.825 0-9.843-7.98-17.824-17.825-17.824v-5.94c13.126 0 23.766 10.64 23.766 23.764 0 13.126-10.64 23.766-23.766 23.766-13.125 0-23.765-10.64-23.765-23.766z"/>
        <path d="M142.592 178.24c0-16.406-13.3-29.706-29.706-29.706-16.407 0-29.707 13.3-29.707 29.706 0 19.688-15.96 35.649-35.648 35.649-19.688 0-35.648-15.96-35.648-35.649 0-19.687 15.96-35.648 35.648-35.648v5.942c-16.407 0-29.707 13.3-29.707 29.706 0 16.407 13.3 29.707 29.707 29.707 16.406 0 29.707-13.3 29.707-29.707 0-19.687 15.96-35.648 35.648-35.648 19.688 0 35.648 15.96 35.648 35.648 0 16.407 13.3 29.707 29.706 29.707 16.407 0 29.707-13.3 29.707-29.707 0-16.406-13.3-29.706-29.707-29.706v-5.942c19.688 0 35.649 15.96 35.649 35.648 0 19.688-15.96 35.649-35.649 35.649-19.687 0-35.648-15.96-35.648-35.649z" opacity=".75"/>
        <path d="M47.53 130.71c9.845 0 17.825-7.98 17.825-17.824 0-9.844-7.98-17.824-17.824-17.824C21.28 95.062 0 73.782 0 47.53 0 21.28 21.28 0 47.53 0c26.251 0 47.532 21.28 47.532 47.53H89.12c0-22.968-18.62-41.589-41.59-41.589-22.968 0-41.589 18.62-41.589 41.59 0 22.969 18.62 41.59 41.59 41.59 13.125 0 23.765 10.64 23.765 23.765s-10.64 23.765-23.765 23.765c-22.97 0-41.59 18.62-41.59 41.59 0 22.969 18.62 41.589 41.59 41.589 22.969 0 41.59-18.62 41.59-41.59h5.94c0 26.251-21.28 47.531-47.53 47.531S0 204.491 0 178.241c0-26.251 21.28-47.531 47.53-47.531z" opacity=".5"/>
        <path d="M47.53 154.475c22.97 0 41.59-18.62 41.59-41.59 0-22.969-18.62-41.589-41.59-41.589-13.124 0-23.765-10.64-23.765-23.765s10.64-23.766 23.766-23.766c13.125 0 23.765 10.64 23.765 23.766h-5.941c0-9.844-7.98-17.824-17.824-17.824-9.844 0-17.824 7.98-17.824 17.824 0 9.844 7.98 17.824 17.824 17.824 26.25 0 47.53 21.28 47.53 47.53 0 26.251-21.28 47.531-47.53 47.531-9.844 0-17.824 7.98-17.824 17.824 0 9.844 7.98 17.825 17.824 17.825 9.844 0 17.824-7.98 17.824-17.825h5.941c0 13.126-10.64 23.766-23.765 23.766s-23.766-10.64-23.766-23.766c0-13.125 10.64-23.765 23.766-23.765z"/>
        <path d="M47.53 142.592c16.407 0 29.708-13.3 29.708-29.706 0-16.407-13.3-29.707-29.707-29.707-19.688 0-35.648-15.96-35.648-35.648 0-19.688 15.96-35.648 35.648-35.648 19.688 0 35.648 15.96 35.648 35.648h-5.941c0-16.407-13.3-29.707-29.707-29.707s-29.707 13.3-29.707 29.707c0 16.406 13.3 29.707 29.707 29.707 19.688 0 35.648 15.96 35.648 35.648 0 19.688-15.96 35.648-35.648 35.648-16.407 0-29.707 13.3-29.707 29.706 0 16.407 13.3 29.707 29.707 29.707 16.406 0 29.707-13.3 29.707-29.707h5.94c0 19.688-15.96 35.649-35.647 35.649-19.688 0-35.648-15.96-35.648-35.649 0-19.687 15.96-35.648 35.648-35.648z" opacity=".75"/>
        <g>
            <path d="M95.062 47.53c0 9.845 7.98 17.825 17.824 17.825 9.844 0 17.824-7.98 17.824-17.824C130.71 21.28 151.99 0 178.24 0c26.251 0 47.531 21.28 47.531 47.53 0 26.251-21.28 47.532-47.53 47.532V89.12c22.969 0 41.589-18.62 41.589-41.59 0-22.968-18.62-41.589-41.59-41.589-22.969 0-41.589 18.62-41.589 41.59 0 13.125-10.64 23.765-23.765 23.765-13.126 0-23.766-10.64-23.766-23.765 0-22.97-18.62-41.59-41.59-41.59-22.968 0-41.589 18.62-41.589 41.59 0 22.969 18.62 41.59 41.59 41.59v5.94C21.28 95.062 0 73.782 0 47.532S21.28 0 47.53 0c26.251 0 47.532 21.28 47.532 47.53z" opacity=".5"/>
            <path d="M71.296 47.53c0 22.97 18.62 41.59 41.59 41.59 22.969 0 41.59-18.62 41.59-41.59 0-13.124 10.64-23.765 23.764-23.765 13.126 0 23.766 10.64 23.766 23.766 0 13.125-10.64 23.765-23.766 23.765v-5.941c9.844 0 17.825-7.98 17.825-17.824 0-9.844-7.98-17.824-17.825-17.824-9.843 0-17.824 7.98-17.824 17.824 0 26.25-21.28 47.53-47.53 47.53s-47.531-21.28-47.531-47.53c0-9.844-7.98-17.824-17.824-17.824-9.844 0-17.824 7.98-17.824 17.824 0 9.844 7.98 17.824 17.824 17.824v5.941c-13.125 0-23.766-10.64-23.766-23.765s10.64-23.766 23.766-23.766c13.125 0 23.765 10.64 23.765 23.766z"/>
            <path d="M83.179 47.53c0 16.407 13.3 29.708 29.707 29.708 16.406 0 29.706-13.3 29.706-29.707 0-19.688 15.96-35.648 35.648-35.648 19.688 0 35.649 15.96 35.649 35.648 0 19.688-15.96 35.648-35.649 35.648v-5.941c16.407 0 29.707-13.3 29.707-29.707s-13.3-29.707-29.707-29.707c-16.406 0-29.706 13.3-29.706 29.707 0 19.688-15.96 35.648-35.648 35.648-19.688 0-35.648-15.96-35.648-35.648 0-16.407-13.3-29.707-29.707-29.707s-29.707 13.3-29.707 29.707c0 16.406 13.3 29.707 29.707 29.707v5.94c-19.688 0-35.648-15.96-35.648-35.647 0-19.688 15.96-35.648 35.648-35.648 19.688 0 35.648 15.96 35.648 35.648z" opacity=".75"/>
        </g>
        <g>
            <path d="M178.24 130.71c-9.843 0-17.824-7.98-17.824-17.824 0-9.844 7.98-17.824 17.824-17.824 26.251 0 47.531-21.28 47.531-47.531 0-26.25-21.28-47.531-47.53-47.531-26.251 0-47.531 21.28-47.531 47.53h5.941c0-22.968 18.62-41.589 41.59-41.589 22.969 0 41.589 18.62 41.589 41.59 0 22.969-18.62 41.59-41.59 41.59-13.125 0-23.765 10.64-23.765 23.765s10.64 23.765 23.765 23.765c22.97 0 41.59 18.62 41.59 41.59 0 22.969-18.62 41.589-41.59 41.589-22.969 0-41.589-18.62-41.589-41.59h-5.941c0 26.251 21.28 47.531 47.53 47.531 26.251 0 47.531-21.28 47.531-47.53 0-26.251-21.28-47.531-47.53-47.531z" opacity=".5"/>
            <path d="M178.24 154.475c-22.969 0-41.589-18.62-41.589-41.59 0-22.969 18.62-41.589 41.59-41.589 13.125 0 23.765-10.64 23.765-23.765s-10.64-23.766-23.766-23.766c-13.125 0-23.765 10.64-23.765 23.766h5.941c0-9.844 7.98-17.824 17.824-17.824 9.844 0 17.825 7.98 17.825 17.824 0 9.844-7.98 17.824-17.825 17.824-26.25 0-47.53 21.28-47.53 47.53 0 26.251 21.28 47.531 47.53 47.531 9.844 0 17.825 7.98 17.825 17.824 0 9.844-7.98 17.825-17.825 17.825-9.843 0-17.824-7.98-17.824-17.825h-5.94c0 13.126 10.64 23.766 23.764 23.766 13.126 0 23.766-10.64 23.766-23.766 0-13.125-10.64-23.765-23.766-23.765z"/>
            <path d="M178.24 142.592c-16.406 0-29.706-13.3-29.706-29.706 0-16.407 13.3-29.707 29.706-29.707 19.688 0 35.649-15.96 35.649-35.648 0-19.688-15.96-35.648-35.649-35.648-19.687 0-35.648 15.96-35.648 35.648h5.942c0-16.407 13.3-29.707 29.706-29.707 16.407 0 29.707 13.3 29.707 29.707 0 16.406-13.3 29.707-29.707 29.707-19.687 0-35.648 15.96-35.648 35.648 0 19.688 15.96 35.648 35.648 35.648 16.407 0 29.707 13.3 29.707 29.706 0 16.407-13.3 29.707-29.707 29.707-16.406 0-29.706-13.3-29.706-29.707h-5.942c0 19.688 15.96 35.649 35.648 35.649 19.688 0 35.649-15.96 35.649-35.649 0-19.687-15.96-35.648-35.649-35.648z" opacity=".75"/>
        </g>
    </g>
</svg>
